# xmcd
#
# Track frame offsets:
#	150
#	20759
#	45801
#	90543
#	134683
#	201344
#	233540
#
# Disc length: 4783
#
# Revision: 1
# Processed by: cddbd v1.5.1PL0 Copyright (c) Steve Scherf et al.
# Submitted via: dBpowerAMP V4.0
# Normalized: r0:TRMNUM
#
DISCID=5412ad07
DTITLE=Gov't Mule - Livet at House of Blues 04-24-03 [CD1]
DYEAR=2003
DGENRE=R&B
TTITLE0=Bad Little Doggie
TTITLE1=Lay Your Burdon Down and Pygmy Twylyte 
TTITLE2=Blind man in the dark (intro ain't no sunshine)
TTITLE3=Thorazine Shuffle
TTITLE4=Banks Of The Deep End
TTITLE5=Time To Confess
TTITLE6=No need To Suffer and World Gone Wild
EXTD=
EXTT0=
EXTT1=
EXTT2=
EXTT3=
EXTT4=
EXTT5=
EXTT6=
PLAYORDER=
